# xmcd
#
# Track frame offsets: 
#        182
#        19180
#        35595
#        53170
#        69095
#        82455
#        95810
#        105777
#        114675
#        127502
#        140987
#        161462
#        176330
#        191590
#        209517
#        222887
#        235640
#        251455
#        264267
#        280367
#        292437
#        302205
#
# Disc length: 4406 seconds
#
# Revision: 7
# Processed by: cddbd v1.5.2PL0 Copyright (c) Steve Scherf et al.
# Submitted via: ExactAudioCopy v1.0b3
#
DISCID=46113416
DTITLE=Ray Charles - Collection
DYEAR=1992
DGENRE=Blues
TTITLE0=I Can't Stop Loving You
TTITLE1=Georgia On My Mind
TTITLE2=Ruby
TTITLE3=Cry
TTITLE4=Eleanor Rigby
TTITLE5=Take These Chains From My Heart
TTITLE6=Hey, Good Lookin'
TTITLE7=Hit the Road Jack
TTITLE8=Unchain My Heart
TTITLE9=You Are My Sunshine
TTITLE10=What'd I Say
TTITLE11=Here We Go Again
TTITLE12=Born To Lose
TTITLE13=Careless Love
TTITLE14=Crying Time
TTITLE15=Yesterday
TTITLE16=You Win Again
TTITLE17=Main' Believe
TTITLE18=Your Cheatin' Heart
TTITLE19=Together Again
TTITLE20=Bye Bye Love
TTITLE21=I Got A Woman
EXTD=YEAR: 1992
EXTT0=
EXTT1=
EXTT2=
EXTT3=
EXTT4=
EXTT5=
EXTT6=
EXTT7=
EXTT8=
EXTT9=
EXTT10=
EXTT11=
EXTT12=
EXTT13=
EXTT14=
EXTT15=
EXTT16=
EXTT17=
EXTT18=
EXTT19=
EXTT20=
EXTT21=
PLAYORDER=
